<?xml version="1.0" standalone="no"?>
<!DOCTYPE svg PUBLIC "-//W3C//DTD SVG 20010904//EN"
 "http://www.w3.org/TR/2001/REC-SVG-20010904/DTD/svg10.dtd">
<svg version="1.0" xmlns="http://www.w3.org/2000/svg"
 width="1142.000000pt" height="1142.000000pt" viewBox="0 0 1142.000000 1142.000000"
 preserveAspectRatio="xMidYMid meet">
<metadata>
Created by potrace 1.11, written by Peter Selinger 2001-2013
</metadata>
<g transform="translate(0.000000,1142.000000) scale(0.100000,-0.100000)"
fill="#000000" stroke="none">
<path d="M3570 10785 c0 -6 -24 -11 -52 -11 -84 -1 -259 -27 -319 -49 -8 -2
-27 -7 -44 -10 -46 -9 -49 -10 -62 -18 -7 -5 -17 -5 -23 -2 -5 3 -10 1 -10 -4
0 -6 -8 -11 -17 -11 -32 0 -260 -122 -283 -151 -3 -4 -32 -25 -64 -48 -33 -22
-57 -41 -54 -41 3 0 -20 -26 -51 -58 -74 -77 -103 -112 -120 -145 -8 -15 -18
-27 -23 -27 -4 0 -8 -7 -8 -15 0 -9 -7 -18 -15 -21 -8 -4 -15 -12 -15 -19 0
-8 -6 -20 -14 -28 -12 -11 -129 -242 -131 -257 -1 -3 -12 -36 -25 -75 -13 -38
-25 -72 -25 -75 0 -3 -7 -28 -14 -56 -7 -29 -14 -58 -15 -65 -2 -8 -6 -25 -9
-39 -29 -111 -58 -247 -62 -292 -3 -29 -7 -66 -10 -83 -10 -61 -25 -292 -25
-385 0 -156 21 -480 36 -560 3 -14 7 -45 8 -70 2 -25 5 -47 6 -50 1 -3 1 -15
0 -27 -1 -13 2 -23 7 -23 4 0 9 -21 11 -48 2 -47 3 -53 15 -102 3 -14 9 -47
12 -74 3 -27 8 -53 11 -58 14 -22 14 -59 -1 -63 -8 -3 -23 -8 -32 -12 -10 -3
-24 -5 -30 -4 -7 1 -13 -3 -13 -9 0 -5 -3 -9 -7 -8 -9 2 -46 -8 -78 -22 -54
-22 -91 -35 -97 -32 -5 1 -8 -3 -8 -9 0 -5 -4 -8 -9 -4 -5 3 -12 1 -16 -5 -4
-6 -10 -8 -15 -5 -5 3 -16 -2 -24 -11 -9 -8 -16 -13 -16 -10 0 3 -25 -5 -55
-19 -30 -13 -55 -22 -55 -19 0 3 -10 -2 -22 -10 -12 -9 -30 -16 -40 -16 -10 0
-18 -5 -18 -11 0 -5 -5 -7 -10 -4 -5 3 -10 1 -10 -4 0 -6 -6 -11 -13 -11 -7 0
-60 -23 -117 -52 -58 -29 -108 -51 -112 -50 -5 1 -8 -2 -8 -7 0 -5 -11 -12
-25 -15 -14 -4 -25 -11 -25 -16 0 -6 -6 -10 -12 -10 -7 0 -51 -23 -98 -51 -47
-28 -98 -59 -115 -69 -47 -27 -128 -83 -149 -102 -10 -9 -23 -15 -28 -12 -4 3
-8 1 -8 -4 0 -5 -19 -22 -42 -37 -24 -15 -50 -34 -58 -42 -8 -7 -33 -27 -55
-44 -168 -128 -341 -312 -455 -482 -19 -29 -38 -53 -42 -55 -4 -2 -8 -8 -8
-13 0 -5 -17 -37 -38 -71 -21 -35 -47 -85 -57 -113 -10 -27 -23 -55 -28 -62
-5 -7 -6 -16 -3 -22 3 -5 1 -11 -4 -13 -6 -2 -13 -17 -16 -33 -7 -37 -9 -46
-16 -65 -6 -15 -30 -127 -32 -145 -1 -5 -5 -13 -11 -17 -6 -5 -5 -8 4 -8 11 0
11 -3 1 -15 -15 -18 -24 -281 -10 -290 5 -3 7 -12 3 -20 -3 -8 -2 -23 3 -32 4
-10 9 -29 10 -43 2 -14 8 -45 14 -70 7 -25 13 -53 15 -63 2 -9 7 -22 10 -27 4
-6 8 -23 11 -38 6 -35 47 -136 57 -140 4 -2 4 -8 1 -14 -4 -6 -3 -13 2 -17 5
-3 20 -28 34 -56 13 -27 28 -53 33 -56 5 -3 8 -9 8 -13 -3 -18 0 -29 5 -23 4
4 14 -7 23 -23 64 -118 344 -434 471 -532 19 -15 46 -36 60 -47 14 -11 66 -49
115 -85 50 -36 95 -70 102 -76 7 -5 15 -10 18 -10 3 0 27 -16 54 -35 26 -19
53 -35 60 -35 6 0 11 -4 11 -8 0 -5 12 -15 27 -23 15 -8 56 -31 90 -51 35 -21
67 -38 73 -38 5 0 10 -5 10 -11 0 -5 4 -7 10 -4 5 3 10 3 10 -2 0 -9 48 -33
66 -33 6 0 14 -7 18 -15 3 -8 9 -14 13 -13 4 1 35 -11 68 -27 33 -16 66 -30
73 -31 8 -2 21 -9 30 -18 10 -8 22 -15 27 -16 6 -1 29 -10 52 -21 57 -26 344
-140 363 -144 8 -2 16 -4 18 -5 1 -2 6 -3 11 -4 5 0 13 -4 17 -8 4 -5 16 -8
27 -8 20 0 20 -10 2 -100 -3 -14 -12 -65 -21 -115 -8 -49 -17 -101 -19 -115
-3 -14 -8 -52 -11 -85 -7 -60 -11 -90 -14 -90 -1 0 -3 -18 -5 -40 -2 -22 -6
-67 -9 -100 -3 -33 -8 -100 -11 -150 -3 -49 -7 -109 -8 -132 -2 -24 1 -43 6
-43 4 0 4 -8 0 -17 -15 -31 0 -353 22 -483 3 -19 8 -53 10 -75 6 -52 41 -213
54 -246 5 -15 7 -30 4 -33 -3 -3 0 -12 7 -21 7 -8 10 -24 7 -34 -3 -11 -1 -21
3 -23 5 -2 11 -14 13 -28 10 -53 20 -86 31 -99 6 -8 9 -16 7 -18 -11 -12 114
-293 131 -293 5 0 6 -5 3 -10 -3 -6 -1 -10 4 -10 6 0 11 -7 11 -15 0 -8 5 -15
10 -15 6 0 10 -5 10 -11 0 -11 43 -74 105 -153 56 -72 195 -206 214 -206 5 0
11 -4 13 -9 7 -18 209 -142 220 -135 4 3 8 1 8 -4 0 -5 25 -17 55 -27 30 -9
58 -21 61 -26 3 -5 9 -7 14 -4 5 3 21 0 36 -5 15 -6 39 -13 53 -15 14 -2 69
-13 121 -24 52 -11 98 -17 102 -15 4 3 8 1 8 -4 0 -13 261 -13 277 0 9 7 13 7
13 0 0 -6 10 -9 23 -6 24 5 76 14 117 20 14 1 48 8 75 14 28 6 61 14 75 17 14
3 30 6 35 7 6 1 19 5 30 9 11 3 31 8 45 11 51 10 175 49 188 58 6 6 12 8 12 4
0 -3 22 3 49 14 27 10 52 16 55 13 3 -4 6 -1 6 6 0 7 4 10 9 6 5 -3 12 -1 16
5 4 6 11 8 16 5 5 -4 12 1 15 9 3 9 10 13 15 10 6 -3 17 0 26 8 9 7 19 12 22
11 3 -1 31 10 61 25 55 26 62 28 79 31 5 0 16 7 23 14 11 10 60 37 78 42 21 6
60 30 60 37 0 4 9 8 19 8 11 0 33 11 50 26 16 14 34 25 38 26 9 1 44 22 85 49
15 11 31 19 36 19 5 0 17 9 27 20 10 11 24 20 31 20 7 0 14 3 16 8 2 4 52 40
113 81 60 41 114 78 120 83 5 4 46 36 90 69 44 33 83 66 87 72 4 7 8 8 8 4 0
-8 4 -5 51 36 14 12 45 39 68 60 24 20 47 37 51 37 9 0 60 -39 81 -62 9 -10
19 -18 23 -18 4 0 17 -10 30 -22 13 -13 56 -48 96 -78 40 -30 77 -60 84 -65 6
-6 27 -22 46 -35 19 -13 40 -28 45 -33 24 -20 241 -169 255 -175 8 -3 17 -9
20 -12 4 -6 137 -88 205 -127 22 -13 299 -150 330 -164 19 -8 74 -30 85 -34 3
-1 13 -5 23 -8 18 -7 45 -16 50 -17 1 0 46 -15 99 -34 54 -18 95 -29 92 -24
-3 5 2 5 12 -1 19 -10 90 -31 129 -38 11 -2 37 -6 58 -9 20 -3 37 -9 37 -13 0
-3 10 -6 23 -7 26 -1 100 -10 177 -21 71 -11 295 -5 295 7 0 1 11 3 25 4 44 4
160 29 160 35 0 3 12 6 28 7 35 0 153 39 215 69 26 13 47 21 47 17 0 -4 7 2
15 12 8 11 15 17 15 13 0 -5 29 13 65 38 36 25 70 45 77 45 6 0 9 3 5 6 -3 4
15 21 41 39 50 34 131 109 147 136 6 9 28 39 50 66 22 27 49 62 60 77 11 16
26 34 33 42 7 8 11 14 8 14 -3 0 11 24 30 53 19 28 40 67 46 84 7 18 16 33 21
33 4 0 6 4 3 9 -3 5 4 20 15 35 11 14 17 26 14 26 -4 0 -2 6 4 14 6 8 11 18
10 22 -1 5 2 20 8 34 6 14 10 28 9 31 0 3 5 13 13 22 7 10 10 17 6 17 -4 0 -2
7 5 15 7 8 9 15 6 15 -4 0 -2 8 3 19 6 10 13 33 16 52 3 18 11 39 17 46 6 7 8
13 5 13 -3 0 0 21 8 47 8 26 12 49 10 52 -3 2 0 10 7 18 6 7 8 16 5 19 -3 3
-2 17 3 30 11 27 19 64 25 109 2 17 6 40 9 52 2 11 7 41 11 65 3 23 8 59 11
78 3 19 7 62 10 95 2 33 6 76 9 95 4 19 6 44 5 55 -1 11 -1 25 -1 30 3 87 2
364 -2 375 -3 8 -8 58 -11 110 -7 136 -13 197 -20 209 -3 5 0 12 6 14 10 4 10
6 1 6 -8 1 -13 15 -13 37 0 19 -5 44 -10 55 -6 11 -7 19 -1 19 5 0 5 17 -1 43
-6 23 -12 56 -14 72 -3 33 -12 82 -19 105 -10 34 -14 99 -7 104 5 3 19 7 33
10 13 2 37 11 53 20 16 8 33 13 38 10 4 -3 8 0 8 5 0 6 3 10 8 9 9 -2 46 9 97
32 57 24 79 33 87 34 3 1 10 4 14 8 4 5 16 8 26 8 10 0 18 4 18 9 0 7 24 17
60 26 3 0 29 13 58 28 30 15 58 27 64 27 5 0 16 7 24 15 9 8 24 15 34 15 10 0
22 5 25 10 4 6 10 8 15 5 4 -3 10 1 13 9 3 8 19 17 36 21 17 4 31 10 31 15 0
5 9 11 20 15 22 7 182 96 190 105 3 4 19 13 37 20 17 8 29 18 27 22 -3 4 4 8
15 8 11 0 23 5 26 10 5 9 48 39 134 95 50 33 226 169 264 204 21 20 45 39 52
43 16 9 165 157 165 164 0 2 13 19 29 37 16 17 38 42 48 54 80 97 97 121 109
155 3 9 12 19 20 22 8 3 14 12 14 21 0 8 3 15 8 15 4 0 12 10 18 23 6 12 25
47 41 77 16 31 38 80 50 110 37 96 38 99 47 138 3 9 5 17 6 17 1 0 3 9 5 20
10 58 18 90 29 123 6 20 12 49 11 65 0 15 2 27 5 27 5 0 6 238 1 250 -2 3 -4
14 -6 25 -23 125 -28 151 -33 160 -3 5 -7 16 -8 25 -2 22 -23 101 -33 125 -35
81 -46 105 -66 145 -25 52 -48 93 -55 100 -3 3 -11 17 -19 33 -8 15 -18 27
-23 27 -4 0 -8 7 -8 15 0 7 -8 19 -17 24 -10 6 -13 11 -8 11 6 0 6 3 -1 8 -6
4 -31 34 -55 68 -76 104 -241 271 -354 359 -21 17 -50 40 -66 53 -15 12 -30
22 -33 22 -3 0 -14 8 -24 18 -10 9 -29 24 -42 32 -12 8 -28 21 -36 28 -7 6
-15 12 -18 12 -3 0 -27 15 -53 34 -73 52 -240 154 -307 188 -34 17 -63 33 -66
37 -3 3 -34 19 -70 36 -36 16 -71 34 -79 39 -7 6 -20 11 -29 13 -9 1 -18 7
-20 12 -2 6 -10 11 -18 11 -8 0 -22 4 -32 9 -59 30 -228 101 -241 101 -6 0
-11 5 -11 11 0 5 -4 8 -10 4 -5 -3 -18 -1 -30 5 -48 24 -57 28 -88 35 -18 3
-32 10 -32 14 0 4 -8 7 -17 8 -10 1 -31 7 -48 14 -35 14 -32 13 -67 23 -23 7
-25 11 -18 36 5 16 6 31 2 34 -3 3 -1 6 4 6 5 0 10 15 10 33 1 17 4 41 7 52 2
11 8 40 11 65 3 25 9 59 12 75 3 17 7 46 9 65 3 19 6 46 9 60 2 14 7 61 11
105 8 99 8 99 20 107 6 5 5 8 -3 8 -7 0 -11 4 -8 8 3 5 7 48 10 95 3 48 8 91
11 97 3 5 3 10 -2 10 -4 0 -8 11 -8 25 0 14 3 25 7 25 4 0 3 11 -2 25 -6 16
-6 26 1 31 6 4 6 11 -2 20 -6 8 -7 14 -2 14 9 0 9 74 -1 143 -2 15 1 27 5 27
5 0 5 10 1 23 -10 26 -9 38 1 55 5 6 4 12 -1 12 -5 0 -9 15 -9 33 0 17 -3 59
-7 92 -4 33 -8 72 -9 88 0 15 -3 27 -6 27 -3 0 -6 19 -5 43 0 23 -3 47 -6 52
-4 6 -7 17 -7 25 0 8 -8 49 -17 90 -10 41 -19 82 -21 90 -28 136 -101 370
-119 382 -6 4 -7 8 -3 8 5 0 2 12 -7 28 -26 48 -50 107 -48 115 1 4 -3 7 -9 7
-5 0 -7 5 -4 10 3 6 3 10 -2 10 -4 0 -24 27 -42 60 -19 33 -39 60 -44 60 -4 0
-6 4 -3 9 4 5 3 11 -1 13 -5 1 -30 32 -58 68 -59 77 -164 184 -220 226 -22 16
-45 34 -52 39 -33 27 -70 52 -93 62 -8 3 -27 15 -42 25 -14 10 -33 18 -42 18
-9 0 -16 4 -16 9 0 8 -41 24 -66 26 -6 0 -18 6 -26 12 -7 7 -27 14 -43 17 -53
10 -76 15 -95 21 -10 3 -29 8 -42 10 -13 3 -43 9 -68 14 -25 6 -61 13 -80 17
-46 8 -280 8 -350 -1 -30 -3 -61 -7 -67 -7 -7 -1 -13 -4 -13 -7 0 -6 -17 -8
-107 -14 -18 -1 -33 -5 -33 -9 0 -5 -12 -8 -26 -8 -14 0 -23 -3 -21 -7 3 -5
-5 -9 -16 -9 -12 -1 -33 -4 -47 -8 -14 -3 -38 -9 -55 -13 -16 -4 -33 -8 -37
-9 -5 -1 -9 -2 -10 -4 -4 -2 -41 -11 -55 -12 -7 -1 -13 -6 -13 -11 0 -6 -3 -8
-6 -5 -3 3 -33 -5 -67 -19 -34 -13 -66 -25 -72 -27 -30 -6 -125 -50 -125 -58
0 -5 -4 -7 -9 -4 -10 6 -304 -141 -309 -155 -2 -5 -9 -9 -14 -9 -6 0 -47 -22
-90 -50 -43 -27 -83 -50 -88 -50 -6 0 -10 -4 -10 -8 0 -5 -12 -15 -27 -23 -16
-8 -30 -16 -33 -19 -15 -16 -80 -60 -80 -55 0 3 -12 -6 -27 -20 -15 -14 -31
-25 -34 -25 -5 0 -23 -13 -66 -50 -7 -6 -13 -8 -13 -5 0 5 -8 -1 -65 -53 -14
-12 -25 -20 -25 -16 0 3 -17 -9 -39 -27 -21 -19 -53 -45 -72 -59 -18 -14 -47
-37 -63 -52 -16 -16 -32 -28 -35 -28 -3 0 -26 -18 -49 -41 l-44 -40 -63 56
c-35 30 -66 55 -69 55 -4 0 -18 10 -32 23 -13 12 -34 30 -44 40 -11 9 -24 17
-30 17 -5 0 -10 3 -10 8 -1 4 -24 23 -52 42 -28 19 -59 43 -69 53 -11 9 -23
17 -29 17 -5 0 -10 5 -10 10 0 6 -7 10 -15 10 -8 0 -15 5 -15 10 0 6 -6 10
-14 10 -8 0 -16 4 -18 8 -5 13 -183 132 -197 132 -7 0 -9 5 -6 10 3 6 1 11 -4
11 -6 1 -14 2 -18 3 -5 0 -21 11 -38 22 -34 25 -124 77 -175 102 -19 9 -37 20
-40 23 -6 9 -208 105 -237 114 -13 3 -23 10 -23 15 0 4 -16 11 -35 14 -19 4
-35 11 -35 17 0 6 -4 8 -8 5 -4 -2 -21 1 -37 9 -46 20 -128 49 -149 52 -11 2
-24 7 -30 12 -6 5 -19 7 -28 6 -10 -2 -20 1 -23 5 -3 5 -26 12 -50 16 -25 3
-45 9 -45 13 0 3 -10 7 -22 7 -13 1 -34 5 -48 8 -14 4 -38 9 -55 12 -16 3 -37
8 -45 11 -8 3 -24 7 -35 9 -11 2 -36 5 -55 8 -65 10 -155 20 -190 20 -19 1
-38 5 -42 11 -5 7 -8 7 -8 0z m4255 -1245 c-4 -7 2 -7 18 -1 14 6 27 8 29 6 2
-3 14 -6 26 -8 12 -2 30 -14 41 -28 12 -13 25 -30 31 -36 6 -7 8 -13 4 -13 -3
0 -1 -7 6 -15 7 -8 9 -15 5 -15 -5 0 0 -9 10 -20 10 -11 15 -20 10 -20 -4 0
-2 -6 4 -13 6 -8 12 -22 14 -33 2 -10 9 -29 15 -41 7 -13 11 -23 8 -23 -3 0 0
-15 5 -32 6 -18 12 -49 14 -68 8 -64 15 -134 19 -178 2 -24 5 -45 7 -47 4 -4
3 -346 -2 -438 -1 -32 -6 -60 -10 -62 -4 -3 -3 -21 1 -40 4 -19 5 -35 1 -35
-3 0 -7 -19 -7 -43 -1 -23 -4 -58 -7 -77 -3 -19 -8 -55 -12 -80 -3 -25 -8 -54
-10 -65 -2 -11 -4 -34 -4 -51 -1 -34 3 -33 -81 -19 -19 3 -46 8 -60 12 -14 3
-34 7 -45 8 -11 1 -36 5 -55 8 -19 4 -54 10 -78 13 -66 9 -66 9 -77 15 -5 3
-25 5 -42 4 -18 0 -33 2 -33 6 0 4 -8 6 -17 4 -10 -1 -26 2 -35 7 -12 6 -18 5
-18 -2 0 -7 -6 -8 -19 -1 -10 6 -35 11 -55 13 -20 1 -36 6 -36 11 0 5 -6 4
-13 -2 -8 -6 -16 -8 -20 -5 -6 6 -84 17 -134 18 -18 1 -33 4 -33 7 0 4 -8 6
-17 6 -34 0 -43 3 -43 13 0 6 -5 16 -10 23 -6 7 -30 39 -55 72 -24 33 -51 67
-60 76 -8 9 -15 19 -15 23 0 4 -6 13 -12 20 -29 30 -58 66 -52 66 3 0 -9 15
-25 33 -17 17 -31 35 -31 39 0 4 -10 18 -22 31 -49 53 -78 88 -78 95 0 4 -13
21 -28 39 -15 17 -40 48 -57 68 -16 20 -44 52 -61 70 l-31 34 27 26 c14 14 29
22 33 18 4 -3 7 0 7 8 0 8 17 26 38 41 20 14 46 34 57 42 11 9 47 36 80 61 33
25 65 48 70 53 34 27 105 72 114 72 6 0 11 5 11 10 0 6 7 10 15 10 8 0 15 4
15 9 0 5 8 11 18 15 17 5 52 26 62 36 23 23 378 198 413 204 6 1 19 6 27 11 8
5 20 10 25 12 6 1 35 8 65 17 30 8 78 19 105 24 28 5 51 10 53 11 2 0 0 -3 -3
-9z m-4100 -26 c41 -8 47 -10 70 -18 11 -5 45 -17 75 -28 30 -11 63 -24 72
-29 10 -5 25 -9 33 -9 8 0 15 -4 15 -9 0 -7 23 -18 51 -25 16 -3 184 -92 187
-98 2 -5 9 -8 17 -8 7 0 18 -7 25 -15 7 -8 16 -12 21 -9 5 3 9 0 9 -5 0 -6 7
-11 15 -11 8 0 15 -4 15 -10 0 -5 5 -10 11 -10 6 0 31 -13 56 -30 24 -16 47
-30 51 -30 4 0 20 -11 36 -25 16 -14 32 -25 36 -25 4 0 16 -8 28 -17 53 -46
63 -53 70 -53 4 0 27 -18 52 -40 25 -22 48 -40 52 -40 3 0 22 -16 42 -35 20
-19 36 -33 36 -30 0 3 9 -3 20 -12 25 -22 25 -23 -7 -59 -16 -17 -44 -50 -63
-74 -19 -23 -41 -49 -48 -56 -7 -8 -11 -14 -8 -14 2 0 -8 -12 -22 -27 -15 -16
-38 -43 -52 -61 -14 -19 -31 -40 -39 -48 -7 -8 -34 -42 -58 -76 -43 -58 -54
-72 -78 -101 -6 -7 -22 -28 -35 -47 -13 -19 -35 -46 -47 -60 -13 -14 -23 -29
-23 -35 -1 -21 -50 -65 -77 -69 -31 -5 -132 -17 -178 -21 -16 -2 -30 -4 -30
-5 0 -1 -20 -3 -45 -6 -42 -4 -85 -11 -85 -14 0 0 -22 -3 -50 -6 -71 -8 -100
-12 -100 -14 0 -1 -9 -3 -20 -4 -35 -4 -116 -17 -138 -22 -12 -3 -38 -7 -57
-9 -19 -3 -63 -11 -97 -18 -56 -12 -63 -12 -67 2 -6 19 -16 89 -21 144 -2 21
-8 44 -14 50 -6 8 -6 18 -1 27 5 8 7 18 4 22 -3 4 -7 31 -10 60 -11 108 -12
123 -14 123 -1 0 -3 57 -5 127 -1 69 -6 131 -10 137 -3 6 0 11 7 12 7 0 8 2 3
5 -6 2 -9 21 -8 42 1 20 5 84 8 142 6 120 13 215 16 215 1 0 3 9 4 20 7 54 17
96 37 155 12 36 21 68 20 73 -1 4 2 7 7 7 5 0 15 15 21 34 6 19 22 46 36 61
24 26 26 27 122 21 53 -3 111 -8 127 -12z m1642 -2520 c-3 -3 -13 -7 -24 -9
-10 -2 -19 -4 -20 -4 -2 -1 -6 -2 -10 -2 -13 -3 -105 -36 -138 -49 -16 -7 -36
-14 -44 -16 -8 -1 -17 -7 -20 -12 -3 -5 -16 -12 -28 -16 -13 -4 -23 -12 -23
-17 0 -6 -4 -8 -9 -4 -5 3 -16 -2 -24 -10 -9 -8 -18 -15 -22 -15 -6 0 -123
-87 -135 -100 -3 -3 -22 -18 -42 -33 -42 -31 -48 -26 -18 13 11 14 20 29 20
33 0 5 6 15 13 22 6 7 30 44 52 80 62 104 81 124 118 124 68 -1 309 9 312 13
2 2 14 4 26 5 12 1 19 0 16 -3z m883 -10 c117 -4 189 -8 211 -13 4 0 12 -14
19 -31 7 -16 16 -30 21 -30 5 0 9 -4 9 -9 0 -5 23 -44 50 -85 28 -42 50 -80
50 -86 0 -5 4 -10 8 -10 7 0 32 -42 32 -54 0 -2 -20 16 -45 40 -24 24 -48 44
-53 44 -4 0 -17 8 -28 18 -18 16 -54 40 -144 98 -81 52 -263 122 -297 116 -7
-2 -13 2 -13 7 0 5 10 8 23 5 12 -3 83 -7 157 -10z m-3714 -469 c1 -10 5 -22
29 -85 13 -34 28 -80 30 -90 0 -3 3 -10 7 -16 4 -6 19 -44 34 -85 14 -41 32
-89 40 -106 32 -75 68 -164 70 -173 0 -3 10 -27 22 -53 12 -27 22 -50 22 -53
0 -4 45 -106 61 -140 8 -16 6 -30 -10 -61 -11 -22 -17 -43 -14 -47 4 -3 2 -6
-4 -6 -6 0 -17 -20 -24 -45 -7 -25 -17 -45 -22 -45 -4 0 -5 -4 -2 -10 3 -5 1
-10 -4 -10 -6 0 -11 -8 -11 -17 0 -10 -6 -30 -14 -45 -16 -31 -36 -89 -35
-102 0 -5 -3 -12 -8 -15 -8 -5 -73 -162 -73 -175 0 -3 -5 -17 -12 -33 -6 -15
-12 -30 -12 -33 -1 -3 -4 -9 -7 -15 -3 -5 -14 -36 -24 -67 -11 -32 -23 -58
-27 -58 -4 0 -5 -7 -2 -15 4 -8 1 -15 -6 -15 -6 0 -9 -3 -7 -7 3 -5 1 -18 -4
-30 l-8 -23 -52 21 c-29 11 -71 28 -94 39 -22 10 -53 22 -68 25 -15 4 -27 11
-27 16 0 5 -7 9 -15 9 -9 0 -27 7 -40 16 -14 9 -25 13 -25 9 0 -5 -8 -1 -17 7
-10 8 -30 18 -45 22 -15 3 -33 12 -40 19 -7 8 -26 17 -41 21 -15 3 -27 11 -27
16 0 6 -6 10 -14 10 -7 0 -30 11 -50 25 -20 13 -36 21 -36 17 0 -4 -4 -2 -8 3
-4 6 -27 21 -52 34 -25 14 -76 45 -114 70 -38 25 -76 51 -85 56 -9 6 -20 16
-24 23 -4 6 -13 12 -19 12 -6 0 -24 14 -40 30 -15 17 -31 30 -35 30 -4 0 -51
45 -104 99 -93 96 -167 201 -155 220 4 5 2 13 -4 16 -11 7 47 125 61 125 5 0
9 5 9 10 0 24 252 246 310 274 38 18 59 33 53 39 -3 4 3 7 14 7 11 0 26 7 33
15 7 8 17 15 23 15 6 0 18 6 26 14 24 21 271 147 271 139 0 -5 5 -1 10 7 5 8
13 15 17 16 10 1 41 14 126 53 37 17 72 31 77 31 6 0 10 5 10 11 0 5 4 8 10 4
5 -3 17 -1 27 4 10 5 45 21 78 35 61 25 89 29 91 11z m6469 -25 c8 0 15 -5 15
-11 0 -6 7 -9 15 -5 8 3 15 1 15 -4 0 -6 3 -9 8 -8 4 1 24 -6 46 -15 21 -9 45
-17 52 -17 8 0 14 -4 14 -10 0 -5 12 -10 26 -10 14 0 23 -4 19 -10 -3 -5 1
-10 10 -10 8 0 23 -4 33 -9 9 -6 69 -35 132 -66 121 -58 242 -123 250 -134 3
-4 16 -12 30 -19 31 -15 63 -35 70 -43 3 -4 19 -15 36 -25 38 -23 106 -78 151
-121 18 -17 33 -30 33 -28 0 4 65 -65 123 -130 15 -16 27 -34 27 -38 0 -5 9
-21 20 -37 l20 -28 -35 -66 c-26 -49 -64 -97 -145 -176 -60 -60 -110 -107
-110 -104 0 4 -19 -10 -42 -30 -24 -20 -50 -42 -60 -50 -9 -8 -25 -17 -37 -21
-12 -3 -21 -11 -21 -16 0 -5 -7 -9 -15 -9 -8 0 -15 -4 -15 -10 0 -5 -6 -10
-14 -10 -8 0 -16 -5 -18 -11 -2 -5 -10 -11 -19 -12 -8 -2 -29 -13 -46 -25 -17
-12 -36 -22 -41 -22 -6 0 -17 -6 -24 -13 -7 -7 -67 -40 -133 -72 -66 -32 -123
-64 -127 -69 -4 -6 -8 -8 -8 -4 0 4 -50 -15 -110 -42 -61 -27 -114 -50 -118
-51 -4 -1 -18 -6 -32 -12 -44 -18 -60 -18 -66 1 -3 9 -10 25 -15 34 -5 10 -9
26 -9 36 0 10 -4 22 -9 27 -10 12 -36 87 -33 98 1 4 -3 7 -10 7 -6 0 -8 3 -5
7 4 3 0 17 -8 30 -9 13 -13 28 -10 33 3 6 2 10 -2 10 -5 0 -17 26 -28 58 -11
31 -22 59 -25 62 -3 3 -23 49 -44 103 -21 53 -42 97 -47 97 -5 0 -8 3 -7 8 4
12 -36 112 -44 112 -5 0 -8 6 -7 13 2 6 -6 29 -16 50 -19 37 -19 39 -1 72 10
18 18 36 17 39 0 3 8 22 19 41 11 20 20 40 20 45 0 5 13 37 29 72 16 35 33 75
36 91 4 15 12 27 18 27 6 0 8 3 5 6 -3 3 21 71 53 152 33 81 59 148 59 150 -1
2 19 57 49 134 l10 27 40 -20 c22 -10 47 -19 56 -19z m-4583 -463 c-7 -8 -10
-16 -7 -19 3 -2 -1 -25 -8 -49 -8 -24 -12 -50 -9 -57 2 -6 0 -12 -5 -12 -5 0
-9 -20 -8 -45 0 -25 -2 -45 -6 -45 -11 0 0 -240 14 -290 2 -8 7 -28 11 -45 4
-16 14 -56 22 -88 9 -33 13 -61 10 -65 -3 -3 -6 2 -6 11 0 10 -4 17 -10 17 -5
0 -10 7 -10 16 0 9 -9 29 -21 45 -11 16 -17 29 -12 29 4 0 3 4 -2 8 -6 4 -17
21 -25 37 -8 17 -25 46 -37 66 -12 20 -19 40 -16 43 4 3 1 6 -6 6 -7 0 -9 5
-6 10 3 6 1 10 -5 10 -6 0 -9 4 -5 9 3 6 -3 14 -12 20 -10 6 -14 11 -10 11 4
0 3 9 -3 20 -12 23 6 90 24 90 5 0 6 3 3 7 -4 3 0 15 10 25 9 10 13 18 10 18
-4 0 6 22 22 48 16 27 32 59 36 70 3 12 11 22 16 22 5 0 8 3 7 8 -3 11 43 95
49 88 3 -3 1 -12 -5 -19z m2615 -25 c9 -20 19 -39 22 -42 4 -3 17 -29 31 -57
14 -29 29 -53 33 -53 5 0 5 -4 2 -10 -3 -5 -2 -10 4 -10 5 0 12 -13 16 -30 4
-16 11 -33 17 -36 5 -4 16 -20 23 -36 11 -28 9 -36 -27 -107 -102 -197 -133
-256 -139 -261 -4 -3 -10 -15 -14 -28 -4 -13 -8 -22 -10 -20 -3 3 2 32 21 111
2 9 6 26 8 37 3 11 8 25 12 31 18 30 22 311 5 386 -6 26 -13 59 -16 73 -2 14
-9 42 -14 62 -11 46 2 41 26 -10z m-372 -1264 c-19 -29 -38 -58 -42 -63 -5 -6
-17 -26 -27 -45 -11 -19 -26 -41 -33 -48 -7 -7 -13 -20 -13 -28 0 -8 -4 -14
-10 -14 -5 0 -10 -5 -10 -10 0 -6 -16 -34 -36 -63 -41 -59 -14 -53 -257 -60
-76 -3 -140 -7 -142 -9 -6 -6 -96 -1 -103 6 -3 3 11 6 31 6 20 0 38 4 42 9 3
6 14 8 25 6 11 -2 20 -1 20 3 0 7 75 30 108 34 6 1 12 5 12 10 0 4 6 8 13 8
17 0 138 60 155 76 7 8 19 14 27 14 7 0 15 4 17 8 2 4 32 29 68 54 36 26 92
71 125 102 33 30 61 55 63 56 1 0 -13 -24 -33 -52z m-1805 -62 c0 4 13 -5 44
-32 27 -25 165 -114 175 -114 6 0 11 -5 11 -11 0 -5 5 -7 10 -4 6 3 10 1 10
-4 0 -6 6 -11 13 -11 6 0 26 -7 42 -16 17 -9 37 -17 45 -18 17 -3 47 -14 70
-25 8 -4 23 -7 33 -5 9 1 17 -1 17 -5 0 -4 6 -8 13 -9 6 0 35 -5 62 -10 33 -6
41 -11 25 -12 -29 -3 -119 -1 -161 4 -17 2 -29 -1 -29 -8 0 -7 -3 -7 -8 -1 -4
6 -61 11 -127 13 -134 3 -138 5 -175 77 -13 25 -27 45 -32 45 -4 0 -8 6 -8 13
0 8 -9 22 -20 32 -11 10 -18 20 -16 22 4 4 -29 59 -52 88 -14 18 -52 82 -52
88 0 4 25 -18 55 -48 30 -29 55 -52 55 -49z m3205 -1366 c4 -22 8 -52 10 -68
11 -91 18 -162 19 -194 1 -21 3 -38 6 -38 11 0 16 -448 7 -570 -6 -75 -18
-172 -23 -190 -2 -8 -6 -35 -9 -59 -3 -24 -9 -49 -13 -55 -3 -6 -7 -17 -8 -25
-4 -22 -46 -123 -72 -171 -45 -84 -52 -87 -145 -84 -110 5 -104 4 -172 22 -33
8 -63 20 -67 26 -4 6 -8 8 -8 4 0 -20 -295 116 -434 200 -37 23 -72 42 -77 42
-5 0 -9 3 -9 8 0 4 -13 13 -28 20 -16 6 -37 20 -48 30 -10 10 -37 29 -59 42
-22 14 -47 30 -55 37 -8 7 -43 34 -76 60 -116 91 -129 101 -166 133 l-36 31
21 23 c36 38 70 80 97 115 14 18 33 42 43 52 9 11 17 22 17 25 0 4 10 15 22
25 11 11 18 19 15 19 -4 0 1 8 11 18 9 11 26 32 37 47 11 16 26 34 33 41 6 7
12 15 12 19 0 3 13 20 30 38 16 18 30 35 30 39 0 4 6 13 13 20 7 7 42 54 77
103 35 50 68 92 72 93 4 2 8 10 8 18 0 8 3 14 8 15 4 1 23 2 42 4 19 2 35 4
35 5 0 1 18 4 40 5 22 2 55 6 74 9 18 3 51 6 72 8 21 1 39 4 39 7 0 4 17 7 38
8 58 2 136 11 152 16 15 6 61 13 130 21 19 2 47 9 63 15 19 8 27 7 27 0 0 -8
4 -8 13 -1 6 5 39 13 71 17 33 4 69 10 80 15 29 11 33 6 41 -40z m-4595 15
c47 -8 53 -9 68 -18 6 -5 12 -4 12 2 0 7 10 6 31 -1 16 -6 33 -8 36 -5 3 4 14
2 24 -3 9 -6 35 -12 56 -15 21 -2 54 -6 73 -9 19 -3 55 -8 80 -11 25 -3 63 -8
85 -11 22 -3 58 -7 80 -9 22 -2 40 -4 40 -5 0 -3 62 -9 138 -14 38 -2 71 -7
74 -10 4 -3 13 -6 20 -6 14 0 62 -48 63 -63 0 -4 23 -38 52 -75 28 -37 65 -85
82 -107 17 -22 37 -46 44 -53 6 -7 12 -17 12 -20 0 -4 10 -18 23 -32 21 -24
42 -50 108 -130 53 -66 144 -175 161 -194 25 -28 23 -39 -14 -66 -18 -13 -40
-29 -48 -36 -57 -51 -74 -64 -79 -64 -3 0 -19 -11 -36 -25 -44 -36 -43 -36
-128 -93 -43 -28 -82 -52 -87 -52 -6 0 -10 -4 -10 -10 0 -5 -7 -10 -15 -10 -8
0 -15 -4 -15 -10 0 -5 -6 -10 -14 -10 -7 0 -19 -7 -26 -15 -7 -9 -15 -13 -18
-10 -3 3 -12 -1 -21 -9 -26 -22 -251 -138 -251 -129 0 4 -4 3 -8 -3 -4 -5 -38
-23 -77 -38 -38 -16 -85 -35 -104 -43 -18 -9 -41 -17 -50 -18 -9 -2 -16 -4
-16 -5 0 -1 -12 -3 -26 -4 -14 -2 -32 -7 -39 -11 -8 -5 -35 -10 -61 -11 -26
-1 -52 -5 -58 -8 -6 -4 -11 -2 -11 4 0 7 -6 8 -17 2 -10 -5 -29 -8 -43 -7 -14
2 -32 4 -41 4 -34 2 -63 42 -118 161 -7 14 -14 35 -16 45 -2 11 -4 20 -5 20
-2 0 -10 32 -15 60 -2 11 -6 36 -10 55 -4 19 -7 45 -6 58 0 13 -4 32 -9 43 -8
13 -7 19 0 19 6 0 8 5 4 11 -17 29 -18 436 0 624 13 143 19 181 29 194 10 12
9 13 -2 7 -10 -7 -11 -3 -6 15 5 13 9 38 9 54 1 17 5 35 8 40 4 6 5 25 4 42
-2 29 0 31 23 27 15 -2 42 -6 61 -9z"/>
</g>
</svg>
